<svg xmlns="http://www.w3.org/2000/svg" viewBox="0 0 24 24">
  <g transform="scale(0.102)">
    <path d="M51.57,199l0,1c.41,4.34,3.67,7.81,7.5,8h.5l92.09,0a30,30,0,0,0-.16,5.61,29.07,29.07,0,0,0,.89,5.42l-92.86,0h-.67c-9.29-.27-16.82-8.27-17.61-18.19l-.06-1.2L37,108.69a25,25,0,0,0,10.13-4.92Z"/>
    <path d="M203.61,215.1a21.15,21.15,0,0,0,7-14.2l.08-1.77,6-140.84c0-.11,0-.22,0-.33a4,4,0,0,0-3.83-4.16H170.57c-1-29.22-20.73-52.52-44.88-52.52S81.86,24.58,80.82,53.8H38.56a3.79,3.79,0,0,0-2.9,1.4,24.51,24.51,0,0,1,8.76,3.27,25.84,25.84,0,0,1,7,6.36H206.08l-5.67,133a29.14,29.14,0,0,1,3.34,11.67,31.42,31.42,0,0,1-.14,5.58M158.29,53.8H93.09c.67-22.13,15-39.81,32.6-39.81s31.93,17.68,32.6,39.81"/>
    <path d="M14.4,71.49a19.75,19.75,0,0,1,17.33-10.7,18.76,18.76,0,0,1,3.07.29,19.23,19.23,0,0,1,6.85,2.54,19.94,19.94,0,0,1,3.76,3,22.25,22.25,0,0,1,5.65,20.65l45.83,28.92a34.75,34.75,0,0,1,12.41-11.24l-2.43-7.51a10.22,10.22,0,0,1-1.23-.11c-6.26-1-10.59-7.17-9.68-13.84A11.71,11.71,0,0,1,107.27,73a10.41,10.41,0,0,1,1.66.13c6.26,1,10.59,7.17,9.68,13.84A12.32,12.32,0,0,1,114,95.13l2.31,7.09a31.75,31.75,0,0,1,12.93-.68c12,1.87,21.6,10.27,26.13,21.33l10-3.44A17.91,17.91,0,0,1,167.9,110a15.78,15.78,0,0,1,13.45-7.78,15.23,15.23,0,0,1,8.72,2.76c7.42,5.14,9.52,15.72,4.7,23.64a15.75,15.75,0,0,1-13.45,7.78,15.22,15.22,0,0,1-8.71-2.76,16.81,16.81,0,0,1-5.52-6.54l-9.55,3.29a38.24,38.24,0,0,1,.28,12,36.67,36.67,0,0,1-10.46,21.23L168,192.12a19.67,19.67,0,0,1,8.15-2.5c.51,0,1-.06,1.51-.06,9.47,0,17.62,6.91,19.92,16.51a23.3,23.3,0,0,1,.6,3.87,23,23,0,0,1-1,8.53c-2.55,8.17-9.5,14.31-18.06,15q-.75.06-1.5.06c-8.81,0-16.47-6-19.36-14.54a22.76,22.76,0,0,1-.92-11,22.57,22.57,0,0,1,4.84-10.9l-20.8-28.64a32.17,32.17,0,0,1-17,4.94,31.14,31.14,0,0,1-4.88-.38,32.86,32.86,0,0,1-18.14-9.26l-17,15.57a14.61,14.61,0,0,1,1.48,8.65c-.94,6.88-6.48,11.84-12.82,11.84a12,12,0,0,1-1.88-.15c-7.09-1.1-12-8.12-11-15.68.94-6.88,6.48-11.84,12.82-11.84a12,12,0,0,1,1.88.15A12.32,12.32,0,0,1,79,173.69l17.52-16a37.74,37.74,0,0,1-3.24-34.59L47.94,94.48c-.37.54-.76,1-1.16,1.53a19.76,19.76,0,0,1-10.05,6.65,18.65,18.65,0,0,1-5,.71,19,19,0,0,1-9.91-2.82C12.22,94.69,8.91,81.68,14.4,71.49"/>
  </g>
</svg>