<svg viewBox="0 0 24 24" fill="none" stroke="currentColor" stroke-width="2" stroke-linecap="round" stroke-linejoin="round" xmlns="http://www.w3.org/2000/svg">
  <rect x="3" y="8" width="18" height="4" rx="1.5"/>
  <rect x="4" y="12" width="16" height="9" rx="1.5"/>
  <line x1="12" y1="8" x2="12" y2="21"/>
  <path d="M12 8C12 8 9 8 7.5 6.5a2.5 2.5 0 0 1 0-3.5 2.5 2.5 0 0 1 3.5 0C12 4 12 8 12 8z"/>
  <path d="M12 8C12 8 15 8 16.5 6.5a2.5 2.5 0 0 0 0-3.5 2.5 2.5 0 0 0-3.5 0C12 4 12 8 12 8z"/>
</svg>